<?xml version="1.0" encoding="utf-8"?>
<!-- Generator: Adobe Illustrator 27.0.0, SVG Export Plug-In . SVG Version: 6.00 Build 0)  -->
<svg version="1.1" id="Pictogram" xmlns="http://www.w3.org/2000/svg" xmlns:xlink="http://www.w3.org/1999/xlink" x="0px" y="0px"
	 viewBox="0 0 144 144" style="enable-background:new 0 0 144 144;" xml:space="preserve">
<style type="text/css">
	.st0{fill:none;}
</style>
<g>
	<ellipse cx="115.7" cy="43.7" rx="9" ry="9"/>
	<path d="M74.5,89.6v28.7c0,2.8,2.3,5.1,5.1,5.1c2.8,0,5.1-2.3,5.1-5.1V87.4c0-1.4-0.6-2.7-1.5-3.6L47.1,47.5
		c-2.3,2.3-3.4,5.2-3.4,8.2v26.6H18c-2.8,0-5.1,2.3-5.1,5.1c0,2.8,2.3,5.1,5.1,5.1h30.9c2.8,0,5.1-2.3,5.1-5.1V69L74.5,89.6z"/>
	<rect x="71.9" y="125.9" width="20.6" height="2.7"/>
	<rect x="7.6" y="79.7" width="2.7" height="20.6"/>
	<path d="M132.8,105.1h-17.1l-10.5-10.5c0.4-0.7,0.6-1.6,0.6-2.5V54c0-2.5-1-4.7-2.6-6.4c0,0-23.4-23.4-23.4-23.4c-2-2-5.3-2-7.3,0
		L54,45l41.6,43.9v3.3c0,2.8,2.3,5.1,5.1,5.1c1,0,1.8-0.3,2.6-0.7l16.1,16.1c1.2,1.2,2.9,1.9,4.6,1.9h8.9c1.9,0,3.5-1.6,3.5-3.5
		v-2.4C136.3,106.7,134.8,105.1,132.8,105.1z M76.2,35.2L86,45H66.3L76.2,35.2z M95.6,85l-22-22h22V85z M133.6,111.1
		c0,0.4-0.3,0.8-0.8,0.8H124c-1,0-2-0.4-2.7-1.1l-2.9-2.9h14.4c0.4,0,0.8,0.3,0.8,0.8L133.6,111.1L133.6,111.1z"/>
</g>
<rect class="st0" width="144" height="144"/>
</svg>
