<?xml version="1.0" encoding="utf-8"?>
<!-- Generator: Adobe Illustrator 27.0.0, SVG Export Plug-In . SVG Version: 6.00 Build 0)  -->
<svg version="1.1" id="Pictogram" xmlns="http://www.w3.org/2000/svg" xmlns:xlink="http://www.w3.org/1999/xlink" x="0px" y="0px"
	 viewBox="0 0 144 144" style="enable-background:new 0 0 144 144;" xml:space="preserve">
<style type="text/css">
	.st0{fill:none;}
</style>
<g>
	<circle cx="110.6" cy="27.1" r="9"/>
	<path d="M128.4,123.5c0,4.2-3.4,7.6-7.6,7.6H54v2.7h66.8c5.7,0,10.4-4.7,10.4-10.4L128.4,123.5L128.4,123.5z"/>
	<path d="M51,50c1,1,2.3,1.5,3.6,1.5c1.3,0,2.6-0.5,3.6-1.5l13-13h4.7L51.4,61.5l4.3,4.3l-38.1,38.1c-2,2-2,5.3,0,7.3s5.3,2,7.3,0
		L63,73.1l21.7,21.7v28.7c0,2.8,2.3,5.1,5.1,5.1s5.1-2.3,5.1-5.1V92.6c0-1.4-0.6-2.7-1.5-3.6L62.9,58.5l-5.3,5.3l-2.4-2.4l24.5-24.5
		h4.7L66.6,54.7L83,71.1l20.2-20.2c3.5-3.5,3.5-9.2,0-12.7l-10-10c-0.9-0.9-2.1-1.4-3.2-1.5l17.1-17.1l-1.9-1.9l-19,19.1H69.1
		c-1.3,0-2.6,0.5-3.6,1.5L51,42.7c-0.6,0.6-1.1,1.4-1.3,2.3H0v2.7h49.7C49.9,48.5,50.4,49.3,51,50z"/>
	<path d="M36.8,131.1c-2,0-4-0.8-5.4-2.2L0,97.5v3.8l29.5,29.5c2,2,4.6,3,7.3,3s5.4-1.1,7.3-3l-1.9-1.9
		C40.8,130.3,38.9,131.1,36.8,131.1z"/>
</g>
<rect class="st0" width="144" height="144"/>
</svg>
